<?xml version="1.0" standalone="no"?>
<!DOCTYPE svg PUBLIC "-//W3C//DTD SVG 20010904//EN"
 "http://www.w3.org/TR/2001/REC-SVG-20010904/DTD/svg10.dtd">
<svg version="1.0" xmlns="http://www.w3.org/2000/svg"
 width="500.000000pt" height="500.000000pt" viewBox="0 0 500.000000 500.000000"
 preserveAspectRatio="xMidYMid meet">
<metadata>
Created by potrace 1.14, written by Peter Selinger 2001-2017
</metadata>
<g transform="translate(0.000000,500.000000) scale(0.100000,-0.100000)"
fill="#000000" stroke="none">
<path d="M0 2500 l0 -2500 2500 0 2500 0 0 2500 0 2500 -2500 0 -2500 0 0
-2500z m2550 1410 c0 -5 -7 -10 -15 -10 -8 0 -15 5 -15 10 0 6 7 10 15 10 8 0
15 -4 15 -10z m-285 -20 c-3 -5 -11 -10 -16 -10 -6 0 -7 5 -4 10 3 6 11 10 16
10 6 0 7 -4 4 -10z m5 -70 c0 -5 -4 -10 -10 -10 -5 0 -10 5 -10 10 0 6 5 10
10 10 6 0 10 -4 10 -10z m240 -19 c0 -18 -18 -21 -30 -6 -10 13 -9 15 9 15 11
0 21 -4 21 -9z m100 -6 c0 -8 -7 -15 -15 -15 -16 0 -20 12 -8 23 11 12 23 8
23 -8z m-236 -1 c9 -3 16 -12 16 -20 0 -10 -14 -14 -52 -12 -36 1 -43 2 -20 5
19 3 32 10 32 19 0 16 2 16 24 8z m696 2 c0 -11 -19 -15 -25 -6 -3 5 1 10 9
10 9 0 16 -2 16 -4z m-597 -23 c-7 -2 -21 -2 -30 0 -10 3 -4 5 12 5 17 0 24
-2 18 -5z m125 -10 c-10 -2 -28 -2 -40 0 -13 2 -5 4 17 4 22 1 32 -1 23 -4z
m-335 -10 c-7 -2 -19 -2 -25 0 -7 3 -2 5 12 5 14 0 19 -2 13 -5z m400 0 c-7
-2 -19 -2 -25 0 -7 3 -2 5 12 5 14 0 19 -2 13 -5z m-456 -9 c-3 -3 -12 -4 -19
-1 -8 3 -5 6 6 6 11 1 17 -2 13 -5z m510 0 c-3 -3 -12 -4 -19 -1 -8 3 -5 6 6
6 11 1 17 -2 13 -5z m-1107 -8 c0 -3 -4 -8 -10 -11 -5 -3 -10 -1 -10 4 0 6 5
11 10 11 6 0 10 -2 10 -4z m557 -2 c-3 -3 -12 -4 -19 -1 -8 3 -5 6 6 6 11 1
17 -2 13 -5z m239 -3 c-4 -5 0 -12 6 -14 7 -3 -15 -6 -50 -6 -35 -1 -72 -5
-82 -11 -13 -7 -21 -6 -30 5 -11 13 -2 15 64 15 44 0 76 4 76 10 0 6 5 10 11
10 5 0 8 -4 5 -9z m351 3 c-3 -3 -12 -4 -19 -1 -8 3 -5 6 6 6 11 1 17 -2 13
-5z m-687 -29 c-36 -13 -56 -24 -45 -25 11 -1 15 -4 8 -6 -7 -3 -20 -1 -29 4
-13 7 -5 14 42 30 32 11 66 20 74 20 8 0 -14 -10 -50 -23z m520 0 c0 -7 6 -16
13 -18 17 -8 -24 -8 -51 -1 l-22 6 21 19 c23 20 39 17 39 -6z m-822 4 c-2 -6
-8 -10 -13 -10 -5 0 -11 4 -13 10 -2 6 4 11 13 11 9 0 15 -5 13 -11z m1062 7
c0 -2 -7 -9 -15 -16 -12 -10 -15 -10 -15 4 0 9 7 16 15 16 8 0 15 -2 15 -4z
m-637 -13 c-7 -2 -21 -2 -30 0 -10 3 -4 5 12 5 17 0 24 -2 18 -5z m315 0 c-10
-2 -26 -2 -35 0 -10 3 -2 5 17 5 19 0 27 -2 18 -5z m-386 -10 c-13 -3 -19 -9
-16 -15 5 -8 1 -9 -10 -5 -10 4 -25 7 -34 8 -26 2 29 17 58 17 23 -1 23 -1 2
-5z m616 -11 c2 -7 -3 -12 -12 -12 -9 0 -16 7 -16 16 0 17 22 14 28 -4z m-748
-13 c12 -8 10 -9 -9 -4 -18 5 -22 4 -16 -6 6 -9 4 -11 -8 -6 -9 3 -17 3 -19
-1 -2 -4 -41 -26 -88 -49 -142 -71 -297 -209 -409 -365 -37 -52 -55 -66 -26
-20 34 52 114 147 169 201 30 30 53 58 50 62 -2 4 1 11 7 15 8 5 9 3 4 -6 -5
-8 -3 -11 6 -8 8 3 13 11 12 19 -2 8 21 27 51 43 34 19 52 34 49 43 -5 12 9
18 31 14 15 -3 66 21 62 28 -3 4 -1 13 4 21 6 10 12 11 22 3 10 -8 22 -6 48 7
42 23 41 23 60 9z m667 5 c-3 -3 -12 -4 -19 -1 -8 3 -5 6 6 6 11 1 17 -2 13
-5z m653 -14 c0 -5 -4 -10 -10 -10 -5 0 -10 5 -10 10 0 6 5 10 10 10 6 0 10
-4 10 -10z m-260 -45 c0 -3 -14 2 -32 11 -22 12 -33 13 -36 5 -2 -6 -8 -9 -12
-6 -5 3 -7 12 -4 20 5 12 12 11 45 -5 21 -11 39 -23 39 -25z m54 29 c4 -9 4
-19 2 -21 -8 -8 -26 8 -26 23 0 19 16 18 24 -2z m-344 -4 c8 -5 11 -10 5 -10
-5 0 -17 5 -25 10 -8 5 -10 10 -5 10 6 0 17 -5 25 -10z m-712 -21 c-2 -6 -8
-10 -13 -10 -5 0 -11 4 -13 10 -2 6 4 11 13 11 9 0 15 -5 13 -11z m149 -4 c0
-18 -19 -15 -25 3 -2 7 3 12 11 12 7 0 14 -7 14 -15z m613 5 c8 -5 11 -10 5
-10 -5 0 -17 5 -25 10 -8 5 -10 10 -5 10 6 0 17 -5 25 -10z m52 -22 c-6 -6
-16 -7 -22 -3 -9 6 -9 9 1 16 17 10 34 0 21 -13z m-162 -2 c111 -20 170 -37
164 -47 -3 -5 3 -9 13 -9 15 0 16 -2 3 -10 -9 -6 -17 -5 -21 2 -4 6 -14 8 -24
5 -10 -5 -14 -3 -9 5 5 8 -1 9 -20 4 -20 -5 -26 -4 -20 5 5 9 -1 10 -25 6 -22
-5 -30 -3 -25 4 5 8 -6 9 -36 4 -23 -4 -40 -3 -37 1 8 14 -249 5 -343 -12
-418 -75 -754 -356 -904 -756 -48 -130 -48 -134 12 -105 105 53 181 72 292 72
58 0 117 -3 132 -7 l26 -8 7 140 c4 77 12 143 17 146 5 3 20 -1 33 -10 21 -14
24 -25 27 -82 l3 -66 45 46 c57 58 101 74 136 51 32 -21 44 -53 44 -120 0 -63
-29 -239 -64 -389 -37 -153 -42 -208 -23 -225 12 -9 21 -10 35 -2 24 13 77 85
118 158 16 29 33 53 37 53 22 0 -110 -202 -143 -220 -31 -16 -79 -11 -100 10
-26 26 -26 86 1 210 51 236 68 326 74 398 6 68 5 80 -12 101 l-20 24 -32 -22
-32 -23 23 -12 c12 -6 28 -23 35 -36 15 -29 17 -80 4 -80 -11 0 -21 25 -21 49
0 10 -9 26 -20 36 -16 15 -22 16 -35 5 -51 -43 -55 -113 -10 -181 27 -42 21
-48 -26 -23 -17 8 -33 14 -35 12 -2 -2 -10 -51 -18 -109 -32 -225 -54 -289
-100 -289 -22 0 -23 9 -5 80 20 78 49 271 49 325 0 33 -1 34 -57 46 -110 22
-252 -5 -395 -77 -42 -21 -47 -28 -57 -74 -19 -87 -24 -240 -12 -340 14 -109
39 -216 55 -233 6 -7 12 -24 12 -38 4 -73 137 -295 250 -418 151 -163 405
-311 534 -311 27 0 40 -4 40 -14 0 -13 41 -26 81 -26 32 0 21 18 -13 23 -20 2
-10 4 25 5 56 2 58 1 41 -16 -17 -16 -14 -17 62 -22 43 -3 81 -2 82 2 2 5 27
7 55 6 l52 -1 -45 -7 -45 -7 56 -1 c123 -4 321 48 468 123 115 57 151 83 145
100 -4 8 -1 15 5 15 6 0 11 -5 11 -11 0 -19 70 39 177 146 56 57 99 106 95
110 -4 5 -1 5 6 1 7 -4 15 0 19 11 3 10 15 30 25 46 34 48 110 211 110 235 0
12 4 22 8 22 5 0 13 21 19 48 15 59 34 93 25 42 -12 -63 -65 -203 -105 -279
-31 -58 -37 -76 -28 -87 14 -17 10 -22 -20 -27 -30 -5 -64 -56 -49 -75 9 -10
8 -16 -3 -23 -19 -12 -29 -11 -29 2 0 7 -10 -1 -22 -17 -13 -15 -21 -36 -20
-46 2 -13 -3 -18 -21 -18 -13 0 -36 -13 -53 -31 -78 -83 -315 -230 -418 -259
-27 -7 -50 -18 -52 -24 -2 -6 -25 -12 -50 -13 -25 -1 -51 -6 -57 -12 -7 -5
-23 -10 -37 -10 -218 -8 -419 -8 -415 0 4 5 -3 9 -14 9 -10 0 -28 3 -38 6 -15
5 -15 4 -3 -5 13 -9 11 -11 -7 -11 -12 0 -29 7 -37 15 -20 20 -126 57 -144 50
-7 -2 -11 -1 -8 3 3 5 -17 18 -45 29 -27 12 -47 17 -44 12 4 -5 -1 -6 -9 -3
-9 3 -14 9 -11 14 2 4 -7 12 -21 19 -14 6 -23 7 -20 3 3 -5 -33 11 -80 35 -64
34 -83 48 -75 57 11 13 -16 43 -64 75 -11 7 -2 -3 19 -23 22 -20 36 -36 32
-36 -9 0 -146 110 -146 118 0 3 10 -3 23 -14 12 -10 8 -3 -9 16 -101 114 -196
271 -238 393 -71 209 -86 285 -88 441 0 94 8 199 18 238 4 15 -2 14 -51 -5
-40 -16 -55 -27 -56 -42 -1 -15 -2 -16 -6 -4 -4 15 -12 14 -78 -7 -249 -79
-441 -40 -545 111 -34 49 -84 190 -76 212 12 29 29 6 50 -68 49 -168 127 -243
282 -268 74 -11 175 0 286 31 70 20 78 25 79 48 l1 25 8 -25 c5 -15 8 -18 9
-8 1 11 7 15 21 11 11 -3 34 0 51 7 25 11 29 17 25 36 -3 12 -1 24 5 26 5 2
25 46 43 98 61 176 146 316 274 451 181 192 428 316 722 362 61 10 272 5 340
-7z m524 -18 c-6 -9 -34 1 -34 11 0 4 3 10 6 14 8 7 33 -16 28 -25z m-129 12
c3 -5 1 -10 -4 -10 -6 0 -11 5 -11 10 0 6 2 10 4 10 3 0 8 -4 11 -10z m-1177
-39 c-5 -24 -38 -27 -38 -3 0 10 3 21 6 25 11 11 35 -5 32 -22z m1032 -7 c0
-2 -9 0 -20 6 -11 6 -20 13 -20 16 0 2 9 0 20 -6 11 -6 20 -13 20 -16z m-1410
-3 c0 -6 -4 -13 -10 -16 -5 -3 -10 1 -10 9 0 9 5 16 10 16 6 0 10 -4 10 -9z
m1530 -77 c30 -23 82 -70 115 -105 50 -52 45 -49 -28 19 -49 45 -99 85 -113
88 -13 3 -24 12 -24 19 0 15 -35 29 -49 21 -5 -3 -24 1 -42 10 -33 15 -13 14
25 -2 16 -6 18 -4 13 9 -6 16 -4 16 21 0 15 -9 52 -36 82 -59z m169 -5 c-5
-11 -14 -19 -19 -19 -16 0 -22 21 -10 35 6 8 8 20 4 27 -4 7 2 5 14 -6 17 -14
19 -23 11 -37z m-1659 21 c0 -5 -4 -10 -10 -10 -5 0 -10 5 -10 10 0 6 5 10 10
10 6 0 10 -4 10 -10z m160 0 c0 -5 -2 -10 -4 -10 -3 0 -8 5 -11 10 -3 6 -1 10
4 10 6 0 11 -4 11 -10z m-130 -14 c0 -2 -8 -10 -17 -17 -16 -13 -17 -12 -4 4
13 16 21 21 21 13z m1747 -108 c-20 -13 -28 -9 -25 11 2 12 -11 36 -32 58 -21
23 -14 19 17 -11 37 -35 49 -52 40 -58z m-1797 69 c0 -1 -30 -32 -67 -67 l-68
-65 65 68 c60 62 70 72 70 64z m92 -32 c0 -5 -5 -11 -11 -13 -6 -2 -11 4 -11
13 0 9 5 15 11 13 6 -2 11 -8 11 -13z m1639 -62 c13 -16 12 -17 -3 -4 -17 13
-22 21 -14 21 2 0 10 -8 17 -17z m114 -13 c10 -11 16 -20 13 -20 -3 0 -13 9
-23 20 -10 11 -16 20 -13 20 3 0 13 -9 23 -20z m-1885 -51 c0 -6 -4 -7 -10 -4
-5 3 -10 11 -10 16 0 6 5 7 10 4 6 -3 10 -11 10 -16z m110 6 c0 -8 -4 -15 -10
-15 -5 0 -10 7 -10 15 0 8 5 15 10 15 6 0 10 -7 10 -15z m2055 5 c3 -5 1 -10
-4 -10 -6 0 -11 5 -11 10 0 6 2 10 4 10 3 0 8 -4 11 -10z m-235 -10 c0 -5 -2
-10 -4 -10 -3 0 -8 5 -11 10 -3 6 -1 10 4 10 6 0 11 -4 11 -10z m-2075 -39 c3
-5 2 -12 -3 -15 -5 -3 -9 1 -9 9 0 17 3 19 12 6z m2045 -1 c0 -5 -7 -10 -15
-10 -8 0 -15 5 -15 10 0 6 7 10 15 10 8 0 15 -4 15 -10z m-1910 -41 c0 -5 -9
-9 -20 -9 -22 0 -27 16 -7 23 15 5 27 -1 27 -14z m2020 -2 c0 -8 -6 -14 -14
-14 -8 0 -12 6 -9 14 3 7 9 13 14 13 5 0 9 -6 9 -13z m-2140 -27 c-6 -11 -13
-20 -16 -20 -2 0 0 9 6 20 6 11 13 20 16 20 2 0 0 -9 -6 -20z m2250 -30 c0
-11 -4 -20 -9 -20 -14 0 -23 18 -16 30 10 17 25 11 25 -10z m-2286 4 c13 -5
11 -14 -13 -62 -16 -32 -39 -85 -51 -119 -21 -58 -40 -77 -55 -53 -3 5 4 15
15 22 12 7 28 28 36 47 17 41 17 41 -1 41 -17 0 -18 2 -9 24 8 21 24 20 24 -1
1 -11 8 -5 20 17 11 22 16 46 13 63 -6 29 -4 31 21 21z m-134 -19 c0 -8 -4
-15 -9 -15 -13 0 -22 16 -14 24 11 11 23 6 23 -9z m210 -55 c0 -13 -7 -20 -20
-20 -13 0 -20 7 -20 20 0 13 7 20 20 20 13 0 20 -7 20 -20z m-360 -10 c0 -5
-4 -10 -10 -10 -5 0 -10 5 -10 10 0 6 5 10 10 10 6 0 10 -4 10 -10z m1470 -18
c60 -32 97 -133 70 -197 -5 -13 -7 0 -7 40 1 81 -21 121 -81 147 -46 21 -47
21 -82 2 -23 -12 -43 -35 -59 -67 -33 -67 -24 -109 60 -277 40 -79 75 -164 82
-199 l12 -60 44 20 c24 10 46 17 49 14 3 -3 -18 -15 -46 -27 -47 -21 -52 -27
-62 -69 -24 -98 -82 -147 -163 -136 -48 7 -67 22 -67 57 0 52 56 101 134 115
l38 8 -4 53 c-5 52 -15 76 -108 251 -65 123 -67 222 -6 292 45 51 133 66 196
33z m1164 -7 c3 -9 0 -15 -9 -15 -8 0 -15 7 -15 15 0 8 4 15 9 15 5 0 11 -7
15 -15z m116 5 c0 -5 -4 -10 -10 -10 -5 0 -10 5 -10 10 0 6 5 10 10 10 6 0 10
-4 10 -10z m-78 -105 c0 -5 -5 -11 -11 -13 -6 -2 -11 4 -11 13 0 9 5 15 11 13
6 -2 11 -8 11 -13z m-2488 -79 c-3 -15 -8 -25 -11 -23 -2 3 -1 17 3 31 3 15 8
25 11 23 2 -3 1 -17 -3 -31z m1746 12 c0 -7 -18 -73 -39 -145 -21 -73 -34
-133 -29 -133 6 0 23 9 39 21 16 11 29 16 29 10 0 -6 -20 -22 -45 -37 -25 -14
-45 -32 -45 -39 0 -7 -3 -21 -6 -30 -5 -13 6 -10 52 13 137 68 244 68 489 -2
275 -79 398 -83 534 -15 76 38 177 144 232 244 36 66 69 97 69 63 0 -27 -94
-158 -157 -219 -164 -158 -334 -185 -632 -99 -316 91 -388 92 -547 3 -52 -29
-56 -37 -79 -156 -14 -70 -21 -86 -38 -91 -27 -7 -37 0 -37 25 0 19 43 222 56
262 5 15 -2 17 -51 17 -53 0 -60 -3 -89 -35 -34 -37 -79 -47 -89 -21 -6 16 47
112 142 259 56 86 66 97 92 97 19 0 29 -5 29 -15 0 -8 -25 -55 -55 -105 -30
-50 -64 -108 -75 -131 l-21 -40 62 3 63 3 21 85 c27 106 55 191 68 208 5 6 20
12 33 12 13 0 24 -6 24 -12z m-1880 -7 c0 -6 -4 -13 -10 -16 -5 -3 -10 1 -10
9 0 9 5 16 10 16 6 0 10 -4 10 -9z m60 -31 c0 -5 -2 -10 -4 -10 -3 0 -8 5 -11
10 -3 6 -1 10 4 10 6 0 11 -4 11 -10z m57 -32 c-3 -8 -6 -5 -6 6 -1 11 2 17 5
13 3 -3 4 -12 1 -19z m53 -3 c0 -8 -4 -15 -9 -15 -13 0 -22 16 -14 24 11 11
23 6 23 -9z m2396 -8 c8 3 14 -1 14 -11 0 -9 -6 -16 -14 -16 -14 0 -27 22 -25
43 1 7 3 4 6 -5 2 -10 10 -15 19 -11z m-2459 -39 c-3 -8 -6 -5 -6 6 -1 11 2
17 5 13 3 -3 4 -12 1 -19z m-10 -65 c-3 -10 -5 -4 -5 12 0 17 2 24 5 18 2 -7
2 -21 0 -30z m2458 -54 c10 -14 1 -21 -19 -13 -9 3 -13 10 -10 15 7 12 21 11
29 -2z m22 -36 c-3 -10 -5 -4 -5 12 0 17 2 24 5 18 2 -7 2 -21 0 -30z m-2425
-48 c0 -5 -5 -11 -11 -13 -6 -2 -11 4 -11 13 0 9 5 15 11 13 6 -2 11 -8 11
-13z m2481 -21 c-6 -17 -23 -9 -23 11 0 8 6 12 14 9 8 -3 12 -12 9 -20z m107
6 c0 -5 -5 -10 -11 -10 -5 0 -7 5 -4 10 3 6 8 10 11 10 2 0 4 -4 4 -10z m70
-10 c0 -5 -4 -10 -10 -10 -5 0 -10 5 -10 10 0 6 5 10 10 10 6 0 10 -4 10 -10z
m-2723 -142 c-2 -13 -4 -3 -4 22 0 25 2 35 4 23 2 -13 2 -33 0 -45z m2613 55
c0 -5 -5 -15 -10 -23 -7 -11 -12 -12 -21 -3 -6 6 -8 16 -5 22 8 12 36 15 36 4z
m-2633 -28 c0 -8 -6 -15 -14 -15 -7 0 -13 7 -13 15 0 8 6 15 13 15 8 0 14 -7
14 -15z m2510 -7 c-3 -8 -6 -5 -6 6 -1 11 2 17 5 13 3 -3 4 -12 1 -19z m63 2
c0 -5 -4 -10 -10 -10 -5 0 -10 5 -10 10 0 6 5 10 10 10 6 0 10 -4 10 -10z
m-2680 -69 c0 -6 -4 -13 -10 -16 -5 -3 -10 1 -10 9 0 9 5 16 10 16 6 0 10 -4
10 -9z m137 -38 c-3 -10 -5 -4 -5 12 0 17 2 24 5 18 2 -7 2 -21 0 -30z m-22 7
c0 -7 -6 -15 -12 -17 -8 -3 -13 4 -13 17 0 13 5 20 13 18 6 -3 12 -11 12 -18z
m2618 -5 c-6 -16 -16 -19 -26 -8 -9 8 13 34 24 28 4 -3 6 -12 2 -20z m-2586
-57 c-3 -8 -6 -5 -6 6 -1 11 2 17 5 13 3 -3 4 -12 1 -19z m2497 9 c3 4 6 2 6
-4 0 -17 -29 -36 -45 -29 -8 3 -15 14 -15 25 0 17 4 19 24 11 13 -5 27 -6 30
-3z m186 -7 c0 -5 -4 -10 -10 -10 -5 0 -10 5 -10 10 0 6 5 10 10 10 6 0 10 -4
10 -10z m-2925 -40 c3 -5 1 -10 -4 -10 -6 0 -11 5 -11 10 0 6 2 10 4 10 3 0 8
-4 11 -10z m260 -49 c-3 -2 -5 1 -5 8 0 8 -7 10 -20 6 -24 -8 -26 8 -3 31 16
16 18 15 25 -12 4 -15 5 -30 3 -33z m2545 44 c0 -8 -7 -15 -15 -15 -9 0 -12 6
-9 15 4 8 10 15 15 15 5 0 9 -7 9 -15z m-2476 -100 c3 -9 0 -15 -9 -15 -8 0
-15 7 -15 15 0 8 4 15 9 15 5 0 11 -7 15 -15z m2354 -7 c-3 -7 -11 -13 -18
-13 -7 0 -15 6 -17 13 -3 7 4 12 17 12 13 0 20 -5 18 -12z m-2458 -22 c0 -3
-4 -8 -10 -11 -5 -3 -10 -1 -10 4 0 6 5 11 10 11 6 0 10 -2 10 -4z m-70 -16
c0 -5 -2 -10 -4 -10 -3 0 -8 5 -11 10 -3 6 -1 10 4 10 6 0 11 -4 11 -10z
m2070 -109 c13 -13 13 -14 0 -9 -8 3 -23 -1 -32 -10 -12 -10 -18 -11 -18 -4 0
7 5 12 10 12 18 0 10 22 -10 27 -11 3 -20 12 -20 19 0 12 6 11 28 -3 15 -10
34 -24 42 -32z m-1481 12 c-5 -14 -8 -32 -5 -39 5 -14 -11 -30 -20 -21 -8 7
18 87 27 87 5 0 4 -12 -2 -27z m1839 16 c-2 -6 -8 -10 -13 -10 -5 0 -11 4 -13
10 -2 6 4 11 13 11 9 0 15 -5 13 -11z m-1798 -33 c0 -2 -8 -10 -17 -17 -16
-13 -17 -12 -4 4 13 16 21 21 21 13z m-409 -20 c-9 -11 -10 -20 -1 -35 6 -12
8 -21 6 -21 -10 0 -35 57 -29 64 4 3 13 6 21 6 11 0 12 -3 3 -14z m1744 -127
c-7 -10 -72 54 -67 64 2 5 19 -6 38 -24 18 -18 31 -36 29 -40z m475 56 c0 -8
-7 -15 -15 -15 -16 0 -20 12 -8 23 11 12 23 8 23 -8z m-60 -15 c-6 -11 -13
-20 -16 -20 -2 0 0 9 6 20 6 11 13 20 16 20 2 0 0 -9 -6 -20z m-1685 -30 c-16
-17 -33 -30 -39 -30 -5 0 5 16 24 35 18 19 36 32 39 30 2 -3 -8 -19 -24 -35z
m-376 -75 c40 -54 43 -60 13 -27 -21 23 -46 57 -57 75 -25 43 -17 34 44 -48z
m2211 61 c0 -3 -4 -8 -10 -11 -5 -3 -10 -1 -10 4 0 6 5 11 10 11 6 0 10 -2 10
-4z m46 -53 c-10 -10 -19 5 -10 18 6 11 8 11 12 0 2 -7 1 -15 -2 -18z m-1757
-33 c-12 -22 -26 -37 -31 -34 -4 3 3 20 17 38 14 18 22 36 17 41 -4 5 -1 5 6
1 10 -6 7 -16 -9 -46z m971 20 c15 -11 30 -17 34 -13 3 3 6 -1 6 -11 0 -16 -2
-16 -31 1 -32 19 -57 43 -44 43 4 0 19 -9 35 -20z m530 16 c0 -2 -8 -10 -17
-17 -16 -13 -17 -12 -4 4 13 16 21 21 21 13z m50 -6 c0 -5 -2 -10 -4 -10 -3 0
-8 5 -11 10 -3 6 -1 10 4 10 6 0 11 -4 11 -10z m-1505 -9 c3 -5 2 -12 -3 -15
-5 -3 -9 1 -9 9 0 17 3 19 12 6z m-568 -18 c7 -20 -14 -23 -31 -4 -15 17 -15
18 6 16 12 -1 23 -6 25 -12z m1993 -6 c0 -2 -12 -14 -27 -28 l-28 -24 24 28
c23 25 31 32 31 24z m-627 -39 c9 -31 2 -33 -11 -3 -6 14 -8 25 -3 25 5 0 11
-10 14 -22z m-691 -14 c-3 -18 -1 -25 6 -20 7 4 7 -3 -1 -23 -6 -17 -13 -28
-17 -26 -8 5 1 95 10 95 4 0 5 -12 2 -26z m642 -14 c3 -19 14 -34 28 -40 l23
-9 -23 0 c-17 -1 -27 8 -38 34 -16 40 -17 45 -5 45 5 0 11 -14 15 -30z m-1271
1 c4 -1 12 -1 18 -1 5 0 7 -5 4 -11 -4 -6 3 -21 16 -35 12 -13 20 -24 18 -24
-3 0 -25 21 -49 47 -25 26 -38 42 -30 36 8 -6 18 -12 23 -12z m117 -91 c-6
-11 -5 -21 3 -30 9 -9 6 -9 -10 1 -29 18 -37 38 -17 46 12 4 6 15 -28 52 l-43
46 52 -49 c41 -39 50 -53 43 -66z m1724 37 c-32 -34 -76 -73 -96 -86 -20 -13
-47 -34 -60 -45 -24 -21 -102 -67 -83 -49 6 5 40 31 77 56 37 26 69 56 73 67
3 10 11 17 18 14 7 -2 37 20 67 51 74 75 77 70 4 -8z m-704 34 c0 -5 -9 -7
-20 -4 -29 8 -25 -16 5 -27 24 -9 37 -50 15 -50 -5 0 -7 7 -4 15 4 10 -3 18
-20 25 -25 9 -34 29 -19 43 10 10 43 8 43 -2z m-305 -53 c5 -26 4 -38 -4 -38
-7 0 -10 4 -7 8 3 5 2 22 -3 38 l-8 29 -17 -32 c-9 -18 -19 -33 -22 -33 -3 0
5 18 17 40 25 45 34 42 44 -12z m865 49 c0 -2 -12 -14 -27 -28 l-28 -24 24 28
c23 25 31 32 31 24z m-1790 -27 c0 -5 -4 -10 -10 -10 -5 0 -10 5 -10 10 0 6 5
10 10 10 6 0 10 -4 10 -10z m1720 -33 c0 -2 -10 -12 -22 -23 l-23 -19 19 23
c18 21 26 27 26 19z m596 -24 c-10 -10 -19 5 -10 18 6 11 8 11 12 0 2 -7 1
-15 -2 -18z m-154 -8 c0 -5 -5 -11 -11 -13 -6 -2 -11 4 -11 13 0 9 5 15 11 13
6 -2 11 -8 11 -13z m-1712 -5 c0 -5 -8 -10 -17 -10 -15 0 -16 2 -3 10 19 12
20 12 20 0z m1280 -29 c0 -17 -18 -21 -24 -6 -3 9 0 15 9 15 8 0 15 -4 15 -9z
m-1420 -38 c0 -7 -39 17 -46 28 -3 6 5 3 20 -6 14 -10 26 -19 26 -22z m1315
27 c-3 -5 -16 -15 -28 -21 -19 -9 -19 -8 3 10 28 23 34 26 25 11z m-1375 -40
c0 -5 -4 -10 -10 -10 -5 0 -10 5 -10 10 0 6 5 10 10 10 6 0 10 -4 10 -10z
m300 -35 c0 -8 -4 -15 -9 -15 -13 0 -22 16 -14 24 11 11 23 6 23 -9z m950 0
c0 -6 -56 -35 -67 -35 -4 1 8 9 27 20 39 22 40 22 40 15z m-1300 -15 c0 -5 -2
-10 -4 -10 -3 0 -8 5 -11 10 -3 6 -1 10 4 10 6 0 11 -4 11 -10z m1480 3 c0
-17 -18 -35 -29 -29 -11 7 -92 -30 -103 -48 -4 -6 -11 -7 -15 -2 -4 5 -3 11 2
13 6 2 37 19 70 37 64 36 75 40 75 29z m-290 -43 c-8 -5 -19 -10 -25 -10 -5 0
-3 5 5 10 8 5 20 10 25 10 6 0 3 -5 -5 -10z m-314 -47 c-10 -10 -19 5 -10 18
6 11 8 11 12 0 2 -7 1 -15 -2 -18z m311 -4 c4 -12 11 -18 20 -15 8 4 27 8 41
11 15 3 -4 -6 -43 -20 -38 -13 -79 -24 -90 -24 -12 1 -8 4 11 10 26 7 31 13
26 34 -3 19 0 25 13 25 9 0 19 -9 22 -21z m123 11 c-8 -5 -19 -10 -25 -10 -5
0 -3 5 5 10 8 5 20 10 25 10 6 0 3 -5 -5 -10z m-253 -6 c-3 -3 -12 -4 -19 -1
-8 3 -5 6 6 6 11 1 17 -2 13 -5z m-37 -8 c0 -2 3 -11 6 -20 4 -11 1 -16 -11
-16 -11 0 -15 5 -12 14 4 9 -1 17 -11 19 -12 3 -11 5 6 6 12 0 22 -1 22 -3z
m-578 -38 c-13 -13 -32 -2 -32 18 0 12 4 13 21 3 14 -7 18 -14 11 -21z m521
25 c-7 -2 -19 -2 -25 0 -7 3 -2 5 12 5 14 0 19 -2 13 -5z m-65 -10 c-10 -2
-28 -2 -40 0 -13 2 -5 4 17 4 22 1 32 -1 23 -4z m612 -3 c0 -5 -2 -10 -4 -10
-3 0 -8 5 -11 10 -3 6 -1 10 4 10 6 0 11 -4 11 -10z m-427 -27 c-7 -2 -21 -2
-30 0 -10 3 -4 5 12 5 17 0 24 -2 18 -5z m-543 -18 c0 -9 -6 -12 -15 -9 -8 4
-15 10 -15 15 0 5 7 9 15 9 8 0 15 -7 15 -15z m1000 -14 c0 -6 -4 -13 -10 -16
-5 -3 -10 1 -10 9 0 9 5 16 10 16 6 0 10 -4 10 -9z m-1076 -82 c-3 -5 -10 -7
-15 -3 -5 3 -7 10 -3 15 3 5 10 7 15 3 5 -3 7 -10 3 -15z m296 17 c0 -3 -4 -8
-10 -11 -5 -3 -10 -1 -10 4 0 6 5 11 10 11 6 0 10 -2 10 -4z m510 -36 c0 -5
-4 -10 -10 -10 -5 0 -10 5 -10 10 0 6 5 10 10 10 6 0 10 -4 10 -10z m-520 -34
c0 -2 -7 -6 -15 -10 -8 -3 -15 -1 -15 4 0 6 7 10 15 10 8 0 15 -2 15 -4z m665
-36 c-3 -5 -11 -10 -16 -10 -6 0 -7 5 -4 10 3 6 11 10 16 10 6 0 7 -4 4 -10z
m-870 -40 c3 -5 1 -10 -4 -10 -6 0 -11 5 -11 10 0 6 2 10 4 10 3 0 8 -4 11
-10z"/>
<path d="M1951 2743 c-1 -12 4 -25 9 -28 12 -7 12 2 0 30 -8 19 -9 19 -9 -2z"/>
<path d="M1782 1401 c-11 -7 -11 -9 0 -14 9 -3 15 1 15 9 0 8 -1 14 -1 14 -1
0 -7 -4 -14 -9z"/>
<path d="M2198 1243 c7 -3 16 -2 19 1 4 3 -2 6 -13 5 -11 0 -14 -3 -6 -6z"/>
<path d="M2398 2374 c-48 -15 -98 -61 -98 -93 0 -37 48 -53 91 -31 29 16 78
124 61 134 -4 2 -28 -3 -54 -10z"/>
</g>
</svg>
